# xmcd
#
# Track frame offsets: 
#        150
#        78243
#        98350
#        109500
#        120878
#        138650
#
# Disc length: 2109 seconds
#
# Revision: 0
# Processed by: cddbd v1.5.2PL0 Copyright (c) Steve Scherf et al.
# Submitted via: ExactAudioCopyFreeDBPlugin 1.0
#
DISCID=39083b06
DTITLE=Various Artist - DJ's Time Out 2
DYEAR=1996
DGENRE=Country
TTITLE0=My Maria Dance Mix - Tall, Tall, Trees - Cherokee Boogie - Bab
TTITLE0=y Likes to Rock It - Big Guitar Extended Mix
TTITLE1=Brooks and Dunn - My Maria Dance Mix
TTITLE2=Alan Jackson - Tall, Tall, Trees
TTITLE3=BR5-49 - Cherokee Boogie
TTITLE4=The Tractors - Baby Likes to Rock It
TTITLE5=BlackHawk - Big Guitar Extended Remix
EXTD=
EXTT0=
EXTT1=
EXTT2=
EXTT3=
EXTT4=
EXTT5=
PLAYORDER=
